<mxfile host="app.diagrams.net" modified="2023-06-26T06:19:35.017Z" agent="Mozilla/5.0 (Windows NT 10.0; Win64; x64) AppleWebKit/537.36 (KHTML, like Gecko) Chrome/114.0.0.0 Safari/537.36" etag="4G7CumkvZQuJZP6R55X8" version="21.5.0" type="github">
  <diagram name="第 1 页" id="iB5OBR2rzD4l3p_NinD-">
    <mxGraphModel dx="2474" dy="1156" grid="0" gridSize="10" guides="1" tooltips="1" connect="1" arrows="1" fold="1" page="0" pageScale="1" pageWidth="827" pageHeight="1169" math="0" shadow="0">
      <root>
        <mxCell id="0" />
        <mxCell id="1" parent="0" />
        <mxCell id="X3p4Lhx2qyk214vXMiK3-1" value="" style="endArrow=none;dashed=1;html=1;dashPattern=1 3;strokeWidth=2;rounded=0;" edge="1" parent="1">
          <mxGeometry width="50" height="50" relative="1" as="geometry">
            <mxPoint x="20.829999999999984" y="560" as="sourcePoint" />
            <mxPoint x="20.829999999999984" y="320" as="targetPoint" />
          </mxGeometry>
        </mxCell>
        <mxCell id="X3p4Lhx2qyk214vXMiK3-2" value="" style="endArrow=none;dashed=1;html=1;dashPattern=1 3;strokeWidth=2;rounded=0;" edge="1" parent="1">
          <mxGeometry width="50" height="50" relative="1" as="geometry">
            <mxPoint x="20.829999999999984" y="560" as="sourcePoint" />
            <mxPoint x="260.83" y="560" as="targetPoint" />
          </mxGeometry>
        </mxCell>
        <mxCell id="X3p4Lhx2qyk214vXMiK3-3" value="" style="endArrow=none;dashed=1;html=1;dashPattern=1 3;strokeWidth=2;rounded=0;" edge="1" parent="1">
          <mxGeometry width="50" height="50" relative="1" as="geometry">
            <mxPoint x="260.83" y="320" as="sourcePoint" />
            <mxPoint x="260.83" y="560" as="targetPoint" />
          </mxGeometry>
        </mxCell>
        <mxCell id="X3p4Lhx2qyk214vXMiK3-11" value="" style="ellipse;whiteSpace=wrap;html=1;aspect=fixed;fillColor=#fff2cc;strokeColor=#0066CC;strokeWidth=8;" vertex="1" parent="1">
          <mxGeometry x="-149.17000000000002" y="443.75" width="40" height="40" as="geometry" />
        </mxCell>
        <mxCell id="X3p4Lhx2qyk214vXMiK3-13" value="" style="ellipse;whiteSpace=wrap;html=1;aspect=fixed;fillColor=#fff2cc;strokeColor=#0066CC;strokeWidth=6;" vertex="1" parent="1">
          <mxGeometry x="-59.170000000000016" y="510" width="40" height="40" as="geometry" />
        </mxCell>
        <mxCell id="X3p4Lhx2qyk214vXMiK3-15" value="" style="endArrow=none;dashed=1;html=1;dashPattern=1 3;strokeWidth=2;rounded=0;" edge="1" parent="1">
          <mxGeometry width="50" height="50" relative="1" as="geometry">
            <mxPoint x="20.829999999999984" y="320" as="sourcePoint" />
            <mxPoint x="260.83" y="320" as="targetPoint" />
          </mxGeometry>
        </mxCell>
        <mxCell id="X3p4Lhx2qyk214vXMiK3-16" value="" style="endArrow=none;html=1;rounded=0;entryX=0.957;entryY=0.757;entryDx=0;entryDy=0;entryPerimeter=0;" edge="1" parent="1" source="X3p4Lhx2qyk214vXMiK3-100" target="X3p4Lhx2qyk214vXMiK3-11">
          <mxGeometry width="50" height="50" relative="1" as="geometry">
            <mxPoint x="0.8299999999999841" y="570" as="sourcePoint" />
            <mxPoint x="70.82999999999998" y="500" as="targetPoint" />
          </mxGeometry>
        </mxCell>
        <mxCell id="X3p4Lhx2qyk214vXMiK3-23" value="" style="endArrow=none;dashed=1;html=1;dashPattern=1 3;strokeWidth=2;rounded=0;" edge="1" parent="1">
          <mxGeometry width="50" height="50" relative="1" as="geometry">
            <mxPoint x="-219.17000000000002" y="560" as="sourcePoint" />
            <mxPoint x="-219.17000000000002" y="320" as="targetPoint" />
          </mxGeometry>
        </mxCell>
        <mxCell id="X3p4Lhx2qyk214vXMiK3-24" value="" style="endArrow=none;dashed=1;html=1;dashPattern=1 3;strokeWidth=2;rounded=0;" edge="1" parent="1">
          <mxGeometry width="50" height="50" relative="1" as="geometry">
            <mxPoint x="-219.17000000000002" y="560" as="sourcePoint" />
            <mxPoint x="20.829999999999984" y="560" as="targetPoint" />
          </mxGeometry>
        </mxCell>
        <mxCell id="X3p4Lhx2qyk214vXMiK3-25" value="" style="endArrow=none;dashed=1;html=1;dashPattern=1 3;strokeWidth=2;rounded=0;" edge="1" parent="1">
          <mxGeometry width="50" height="50" relative="1" as="geometry">
            <mxPoint x="20.829999999999984" y="320" as="sourcePoint" />
            <mxPoint x="20.829999999999984" y="560" as="targetPoint" />
          </mxGeometry>
        </mxCell>
        <mxCell id="X3p4Lhx2qyk214vXMiK3-26" value="" style="endArrow=none;dashed=1;html=1;dashPattern=1 3;strokeWidth=2;rounded=0;" edge="1" parent="1">
          <mxGeometry width="50" height="50" relative="1" as="geometry">
            <mxPoint x="-219.17000000000002" y="320" as="sourcePoint" />
            <mxPoint x="20.829999999999984" y="320" as="targetPoint" />
          </mxGeometry>
        </mxCell>
        <mxCell id="X3p4Lhx2qyk214vXMiK3-27" value="" style="endArrow=none;dashed=1;html=1;dashPattern=1 3;strokeWidth=2;rounded=0;" edge="1" parent="1">
          <mxGeometry width="50" height="50" relative="1" as="geometry">
            <mxPoint x="20.829999999999984" y="800" as="sourcePoint" />
            <mxPoint x="20.829999999999984" y="560" as="targetPoint" />
          </mxGeometry>
        </mxCell>
        <mxCell id="X3p4Lhx2qyk214vXMiK3-28" value="" style="endArrow=none;dashed=1;html=1;dashPattern=1 3;strokeWidth=2;rounded=0;" edge="1" parent="1">
          <mxGeometry width="50" height="50" relative="1" as="geometry">
            <mxPoint x="20.829999999999984" y="800" as="sourcePoint" />
            <mxPoint x="260.83" y="800" as="targetPoint" />
          </mxGeometry>
        </mxCell>
        <mxCell id="X3p4Lhx2qyk214vXMiK3-29" value="" style="endArrow=none;dashed=1;html=1;dashPattern=1 3;strokeWidth=2;rounded=0;" edge="1" parent="1">
          <mxGeometry width="50" height="50" relative="1" as="geometry">
            <mxPoint x="260.83" y="560" as="sourcePoint" />
            <mxPoint x="260.83" y="800" as="targetPoint" />
          </mxGeometry>
        </mxCell>
        <mxCell id="X3p4Lhx2qyk214vXMiK3-30" value="" style="endArrow=none;dashed=1;html=1;dashPattern=1 3;strokeWidth=2;rounded=0;" edge="1" parent="1">
          <mxGeometry width="50" height="50" relative="1" as="geometry">
            <mxPoint x="-219.17000000000002" y="800" as="sourcePoint" />
            <mxPoint x="-219.17000000000002" y="560" as="targetPoint" />
          </mxGeometry>
        </mxCell>
        <mxCell id="X3p4Lhx2qyk214vXMiK3-31" value="" style="endArrow=none;dashed=1;html=1;dashPattern=1 3;strokeWidth=2;rounded=0;" edge="1" parent="1">
          <mxGeometry width="50" height="50" relative="1" as="geometry">
            <mxPoint x="-219.17000000000002" y="800" as="sourcePoint" />
            <mxPoint x="20.829999999999984" y="800" as="targetPoint" />
          </mxGeometry>
        </mxCell>
        <mxCell id="X3p4Lhx2qyk214vXMiK3-32" value="" style="endArrow=none;dashed=1;html=1;dashPattern=1 3;strokeWidth=2;rounded=0;" edge="1" parent="1">
          <mxGeometry width="50" height="50" relative="1" as="geometry">
            <mxPoint x="20.829999999999984" y="560" as="sourcePoint" />
            <mxPoint x="20.829999999999984" y="800" as="targetPoint" />
          </mxGeometry>
        </mxCell>
        <mxCell id="X3p4Lhx2qyk214vXMiK3-33" value="" style="endArrow=none;dashed=1;html=1;dashPattern=1 3;strokeWidth=2;rounded=0;" edge="1" parent="1">
          <mxGeometry width="50" height="50" relative="1" as="geometry">
            <mxPoint x="-219.17000000000002" y="560" as="sourcePoint" />
            <mxPoint x="20.829999999999984" y="560" as="targetPoint" />
          </mxGeometry>
        </mxCell>
        <mxCell id="X3p4Lhx2qyk214vXMiK3-34" value="" style="endArrow=none;dashed=1;html=1;dashPattern=1 3;strokeWidth=2;rounded=0;" edge="1" parent="1">
          <mxGeometry width="50" height="50" relative="1" as="geometry">
            <mxPoint x="-220.00000000000006" y="320" as="sourcePoint" />
            <mxPoint x="-220.00000000000006" y="560" as="targetPoint" />
          </mxGeometry>
        </mxCell>
        <mxCell id="X3p4Lhx2qyk214vXMiK3-35" value="" style="endArrow=none;dashed=1;html=1;dashPattern=1 3;strokeWidth=2;rounded=0;" edge="1" parent="1">
          <mxGeometry width="50" height="50" relative="1" as="geometry">
            <mxPoint x="-220.00000000000006" y="560" as="sourcePoint" />
            <mxPoint x="-220.00000000000006" y="800" as="targetPoint" />
          </mxGeometry>
        </mxCell>
        <mxCell id="X3p4Lhx2qyk214vXMiK3-36" value="&lt;h2 style=&quot;&quot;&gt;&lt;font face=&quot;comic sans ms&quot; style=&quot;font-size: 19px;&quot;&gt;v&lt;/font&gt;&lt;font face=&quot;comic sans ms&quot; style=&quot;font-size: 13.1944px;&quot;&gt;&lt;sub&gt;3&lt;/sub&gt;&lt;/font&gt;&lt;/h2&gt;" style="text;html=1;strokeColor=none;fillColor=none;align=center;verticalAlign=middle;whiteSpace=wrap;rounded=0;" vertex="1" parent="1">
          <mxGeometry x="-49.170000000000016" y="521.25" width="20" height="17.5" as="geometry" />
        </mxCell>
        <mxCell id="X3p4Lhx2qyk214vXMiK3-37" value="&lt;h1&gt;&lt;font face=&quot;Comic Sans MS&quot;&gt;D&lt;sub style=&quot;&quot;&gt;&lt;font style=&quot;font-size: 16px;&quot;&gt;4&lt;/font&gt;&lt;/sub&gt;&lt;/font&gt;&lt;/h1&gt;&lt;p&gt;&lt;br&gt;&lt;/p&gt;" style="text;html=1;strokeColor=none;fillColor=none;spacing=5;spacingTop=-20;whiteSpace=wrap;overflow=hidden;rounded=0;" vertex="1" parent="1">
          <mxGeometry x="28.829999999999984" y="757" width="49" height="44" as="geometry" />
        </mxCell>
        <mxCell id="X3p4Lhx2qyk214vXMiK3-40" value="" style="ellipse;whiteSpace=wrap;html=1;aspect=fixed;fillColor=#f5f5f5;strokeColor=#666666;fontColor=#333333;" vertex="1" parent="1">
          <mxGeometry x="-40.170000000000016" y="651" width="40" height="40" as="geometry" />
        </mxCell>
        <mxCell id="X3p4Lhx2qyk214vXMiK3-41" value="" style="ellipse;whiteSpace=wrap;html=1;aspect=fixed;fillColor=#f5f5f5;strokeColor=#666666;fontColor=#333333;" vertex="1" parent="1">
          <mxGeometry x="-121.17000000000002" y="586" width="40" height="40" as="geometry" />
        </mxCell>
        <mxCell id="X3p4Lhx2qyk214vXMiK3-42" value="" style="ellipse;whiteSpace=wrap;html=1;aspect=fixed;fillColor=#f5f5f5;strokeColor=#666666;fontColor=#333333;" vertex="1" parent="1">
          <mxGeometry x="-119.17000000000002" y="721" width="40" height="40" as="geometry" />
        </mxCell>
        <mxCell id="X3p4Lhx2qyk214vXMiK3-43" value="" style="ellipse;whiteSpace=wrap;html=1;aspect=fixed;fillColor=#f5f5f5;strokeColor=#666666;fontColor=#333333;" vertex="1" parent="1">
          <mxGeometry x="-197.17000000000002" y="681" width="40" height="40" as="geometry" />
        </mxCell>
        <mxCell id="X3p4Lhx2qyk214vXMiK3-44" value="" style="endArrow=none;html=1;rounded=0;strokeWidth=3;fillColor=#d80073;strokeColor=#A50040;entryX=0.5;entryY=1;entryDx=0;entryDy=0;" edge="1" parent="1" target="X3p4Lhx2qyk214vXMiK3-11">
          <mxGeometry width="50" height="50" relative="1" as="geometry">
            <mxPoint x="-123.17000000000002" y="516" as="sourcePoint" />
            <mxPoint x="-140.17000000000002" y="500" as="targetPoint" />
          </mxGeometry>
        </mxCell>
        <mxCell id="X3p4Lhx2qyk214vXMiK3-47" value="" style="ellipse;whiteSpace=wrap;html=1;aspect=fixed;fillColor=#d5e8d4;strokeColor=#0066CC;strokeWidth=6;" vertex="1" parent="1">
          <mxGeometry x="90.82999999999998" y="728" width="40" height="40" as="geometry" />
        </mxCell>
        <mxCell id="X3p4Lhx2qyk214vXMiK3-48" value="" style="endArrow=none;html=1;rounded=0;entryX=1;entryY=1;entryDx=0;entryDy=0;" edge="1" parent="1" target="X3p4Lhx2qyk214vXMiK3-43">
          <mxGeometry width="50" height="50" relative="1" as="geometry">
            <mxPoint x="-146.17000000000002" y="724" as="sourcePoint" />
            <mxPoint x="-222.17000000000002" y="749" as="targetPoint" />
          </mxGeometry>
        </mxCell>
        <mxCell id="X3p4Lhx2qyk214vXMiK3-49" value="" style="endArrow=none;html=1;rounded=0;exitX=1;exitY=0;exitDx=0;exitDy=0;" edge="1" parent="1" source="X3p4Lhx2qyk214vXMiK3-43">
          <mxGeometry width="50" height="50" relative="1" as="geometry">
            <mxPoint x="-109.17000000000002" y="751" as="sourcePoint" />
            <mxPoint x="-143.17000000000002" y="660" as="targetPoint" />
          </mxGeometry>
        </mxCell>
        <mxCell id="X3p4Lhx2qyk214vXMiK3-52" value="&lt;font color=&quot;#a50040&quot; style=&quot;font-size: 19px;&quot; face=&quot;Comic Sans MS&quot;&gt;&lt;b&gt;1&lt;/b&gt;&lt;/font&gt;" style="text;html=1;strokeColor=none;fillColor=none;align=center;verticalAlign=middle;whiteSpace=wrap;rounded=0;" vertex="1" parent="1">
          <mxGeometry x="-132.17000000000002" y="520" width="23" height="18" as="geometry" />
        </mxCell>
        <mxCell id="X3p4Lhx2qyk214vXMiK3-53" value="" style="endArrow=none;html=1;rounded=0;strokeWidth=3;fillColor=#d80073;strokeColor=#A50040;entryX=0.5;entryY=1;entryDx=0;entryDy=0;exitX=0.366;exitY=0.015;exitDx=0;exitDy=0;exitPerimeter=0;" edge="1" parent="1" source="X3p4Lhx2qyk214vXMiK3-41">
          <mxGeometry width="50" height="50" relative="1" as="geometry">
            <mxPoint x="-111.17000000000002" y="574" as="sourcePoint" />
            <mxPoint x="-117.17000000000002" y="542" as="targetPoint" />
          </mxGeometry>
        </mxCell>
        <mxCell id="X3p4Lhx2qyk214vXMiK3-54" value="" style="endArrow=none;html=1;rounded=0;strokeWidth=3;fillColor=#d80073;strokeColor=#A50040;entryX=0.5;entryY=1;entryDx=0;entryDy=0;" edge="1" parent="1">
          <mxGeometry width="50" height="50" relative="1" as="geometry">
            <mxPoint x="-29.170000000000016" y="588" as="sourcePoint" />
            <mxPoint x="-33.170000000000016" y="550" as="targetPoint" />
          </mxGeometry>
        </mxCell>
        <mxCell id="X3p4Lhx2qyk214vXMiK3-55" value="&lt;font color=&quot;#a50040&quot; style=&quot;font-size: 19px;&quot; face=&quot;Comic Sans MS&quot;&gt;&lt;b&gt;2&lt;/b&gt;&lt;/font&gt;" style="text;html=1;strokeColor=none;fillColor=none;align=center;verticalAlign=middle;whiteSpace=wrap;rounded=0;" vertex="1" parent="1">
          <mxGeometry x="-40.170000000000016" y="589" width="23" height="18" as="geometry" />
        </mxCell>
        <mxCell id="X3p4Lhx2qyk214vXMiK3-56" style="edgeStyle=orthogonalEdgeStyle;rounded=0;orthogonalLoop=1;jettySize=auto;html=1;exitX=0.5;exitY=1;exitDx=0;exitDy=0;" edge="1" parent="1" source="X3p4Lhx2qyk214vXMiK3-55" target="X3p4Lhx2qyk214vXMiK3-55">
          <mxGeometry relative="1" as="geometry" />
        </mxCell>
        <mxCell id="X3p4Lhx2qyk214vXMiK3-57" value="" style="endArrow=none;html=1;rounded=0;strokeWidth=3;fillColor=#d80073;strokeColor=#A50040;entryX=0.5;entryY=1;entryDx=0;entryDy=0;" edge="1" parent="1">
          <mxGeometry width="50" height="50" relative="1" as="geometry">
            <mxPoint x="-25.170000000000016" y="651.25" as="sourcePoint" />
            <mxPoint x="-29.170000000000016" y="613.25" as="targetPoint" />
          </mxGeometry>
        </mxCell>
        <mxCell id="X3p4Lhx2qyk214vXMiK3-58" value="" style="endArrow=none;html=1;rounded=0;" edge="1" parent="1">
          <mxGeometry width="50" height="50" relative="1" as="geometry">
            <mxPoint x="-65.17000000000002" y="632" as="sourcePoint" />
            <mxPoint x="-85.17000000000002" y="619" as="targetPoint" />
          </mxGeometry>
        </mxCell>
        <mxCell id="X3p4Lhx2qyk214vXMiK3-66" value="&lt;font color=&quot;#a50040&quot; style=&quot;font-size: 19px;&quot; face=&quot;Comic Sans MS&quot;&gt;&lt;b&gt;1&lt;/b&gt;&lt;/font&gt;" style="text;html=1;strokeColor=none;fillColor=none;align=center;verticalAlign=middle;whiteSpace=wrap;rounded=0;" vertex="1" parent="1">
          <mxGeometry x="37.829999999999984" y="703" width="23" height="18" as="geometry" />
        </mxCell>
        <mxCell id="X3p4Lhx2qyk214vXMiK3-67" value="" style="endArrow=none;html=1;rounded=0;strokeWidth=3;fillColor=#d80073;strokeColor=#A50040;entryX=1.004;entryY=0.794;entryDx=0;entryDy=0;entryPerimeter=0;exitX=0;exitY=0.25;exitDx=0;exitDy=0;" edge="1" parent="1" source="X3p4Lhx2qyk214vXMiK3-66" target="X3p4Lhx2qyk214vXMiK3-40">
          <mxGeometry width="50" height="50" relative="1" as="geometry">
            <mxPoint x="70.82999999999998" y="635.25" as="sourcePoint" />
            <mxPoint x="83.82999999999998" y="613.25" as="targetPoint" />
          </mxGeometry>
        </mxCell>
        <mxCell id="X3p4Lhx2qyk214vXMiK3-68" value="" style="endArrow=none;html=1;rounded=0;exitX=1;exitY=1;exitDx=0;exitDy=0;strokeWidth=3;fillColor=#d80073;strokeColor=#A50040;entryX=0.061;entryY=0.338;entryDx=0;entryDy=0;entryPerimeter=0;" edge="1" parent="1" source="X3p4Lhx2qyk214vXMiK3-66" target="X3p4Lhx2qyk214vXMiK3-47">
          <mxGeometry width="50" height="50" relative="1" as="geometry">
            <mxPoint x="40.829999999999984" y="740.5" as="sourcePoint" />
            <mxPoint x="77.82999999999998" y="741.5" as="targetPoint" />
          </mxGeometry>
        </mxCell>
        <mxCell id="X3p4Lhx2qyk214vXMiK3-76" value="&lt;h2 style=&quot;&quot;&gt;&lt;font style=&quot;font-size: 19px;&quot;&gt;v&lt;/font&gt;&lt;font style=&quot;font-size: 10.9953px;&quot;&gt;&lt;sub&gt;12&lt;/sub&gt;&lt;/font&gt;&lt;/h2&gt;" style="text;html=1;strokeColor=none;fillColor=none;align=center;verticalAlign=middle;whiteSpace=wrap;rounded=0;fontFamily=Comic Sans MS;" vertex="1" parent="1">
          <mxGeometry x="102.07999999999998" y="737" width="20.5" height="18" as="geometry" />
        </mxCell>
        <mxCell id="X3p4Lhx2qyk214vXMiK3-78" value="&lt;font size=&quot;1&quot; face=&quot;Comic Sans MS&quot;&gt;&lt;b style=&quot;font-size: 19px;&quot;&gt;2&lt;/b&gt;&lt;/font&gt;" style="text;html=1;strokeColor=none;fillColor=none;align=center;verticalAlign=middle;whiteSpace=wrap;rounded=0;" vertex="1" parent="1">
          <mxGeometry x="-146.17000000000002" y="642" width="17" height="14.5" as="geometry" />
        </mxCell>
        <mxCell id="X3p4Lhx2qyk214vXMiK3-79" value="" style="endArrow=none;html=1;rounded=0;exitX=1;exitY=0;exitDx=0;exitDy=0;" edge="1" parent="1">
          <mxGeometry width="50" height="50" relative="1" as="geometry">
            <mxPoint x="-130.67000000000002" y="642" as="sourcePoint" />
            <mxPoint x="-115.17000000000002" y="621" as="targetPoint" />
          </mxGeometry>
        </mxCell>
        <mxCell id="X3p4Lhx2qyk214vXMiK3-80" value="&lt;font size=&quot;1&quot; face=&quot;Comic Sans MS&quot;&gt;&lt;b style=&quot;font-size: 19px;&quot;&gt;1&lt;/b&gt;&lt;/font&gt;" style="text;html=1;strokeColor=none;fillColor=none;align=center;verticalAlign=middle;whiteSpace=wrap;rounded=0;" vertex="1" parent="1">
          <mxGeometry x="-66.17000000000002" y="629" width="17" height="14.5" as="geometry" />
        </mxCell>
        <mxCell id="X3p4Lhx2qyk214vXMiK3-81" value="" style="endArrow=none;html=1;rounded=0;exitX=0.193;exitY=0.083;exitDx=0;exitDy=0;exitPerimeter=0;" edge="1" parent="1" source="X3p4Lhx2qyk214vXMiK3-40">
          <mxGeometry width="50" height="50" relative="1" as="geometry">
            <mxPoint x="-31.170000000000016" y="655" as="sourcePoint" />
            <mxPoint x="-51.170000000000016" y="642" as="targetPoint" />
          </mxGeometry>
        </mxCell>
        <mxCell id="X3p4Lhx2qyk214vXMiK3-82" value="&lt;font size=&quot;1&quot; face=&quot;Comic Sans MS&quot;&gt;&lt;b style=&quot;font-size: 19px;&quot;&gt;1&lt;/b&gt;&lt;/font&gt;" style="text;html=1;strokeColor=none;fillColor=none;align=center;verticalAlign=middle;whiteSpace=wrap;rounded=0;" vertex="1" parent="1">
          <mxGeometry x="-149.17000000000002" y="717" width="17" height="14.5" as="geometry" />
        </mxCell>
        <mxCell id="X3p4Lhx2qyk214vXMiK3-83" value="" style="endArrow=none;html=1;rounded=0;entryX=1;entryY=1;entryDx=0;entryDy=0;" edge="1" parent="1">
          <mxGeometry width="50" height="50" relative="1" as="geometry">
            <mxPoint x="-119.17000000000002" y="737" as="sourcePoint" />
            <mxPoint x="-136.17000000000002" y="728" as="targetPoint" />
          </mxGeometry>
        </mxCell>
        <mxCell id="X3p4Lhx2qyk214vXMiK3-87" value="&lt;font size=&quot;1&quot; face=&quot;Comic Sans MS&quot;&gt;&lt;b style=&quot;font-size: 19px;&quot;&gt;1&lt;/b&gt;&lt;/font&gt;" style="text;html=1;strokeColor=none;fillColor=none;align=center;verticalAlign=middle;whiteSpace=wrap;rounded=0;" vertex="1" parent="1">
          <mxGeometry x="-62.170000000000016" y="693.5" width="17" height="14.5" as="geometry" />
        </mxCell>
        <mxCell id="X3p4Lhx2qyk214vXMiK3-88" value="" style="endArrow=none;html=1;rounded=0;entryX=0.108;entryY=0.821;entryDx=0;entryDy=0;entryPerimeter=0;" edge="1" parent="1" target="X3p4Lhx2qyk214vXMiK3-40">
          <mxGeometry width="50" height="50" relative="1" as="geometry">
            <mxPoint x="-48.170000000000016" y="696" as="sourcePoint" />
            <mxPoint x="-81.17000000000002" y="679.25" as="targetPoint" />
          </mxGeometry>
        </mxCell>
        <mxCell id="X3p4Lhx2qyk214vXMiK3-89" value="" style="endArrow=none;html=1;rounded=0;exitX=1;exitY=0;exitDx=0;exitDy=0;" edge="1" parent="1" source="X3p4Lhx2qyk214vXMiK3-42">
          <mxGeometry width="50" height="50" relative="1" as="geometry">
            <mxPoint x="-81.17000000000002" y="731" as="sourcePoint" />
            <mxPoint x="-62.170000000000016" y="707" as="targetPoint" />
          </mxGeometry>
        </mxCell>
        <mxCell id="X3p4Lhx2qyk214vXMiK3-99" value="" style="endArrow=none;html=1;rounded=0;entryX=0.957;entryY=0.757;entryDx=0;entryDy=0;entryPerimeter=0;" edge="1" parent="1" source="X3p4Lhx2qyk214vXMiK3-13" target="X3p4Lhx2qyk214vXMiK3-100">
          <mxGeometry width="50" height="50" relative="1" as="geometry">
            <mxPoint x="-55" y="518" as="sourcePoint" />
            <mxPoint x="-111" y="474" as="targetPoint" />
          </mxGeometry>
        </mxCell>
        <mxCell id="X3p4Lhx2qyk214vXMiK3-100" value="&lt;font size=&quot;1&quot; face=&quot;Comic Sans MS&quot;&gt;&lt;b style=&quot;font-size: 19px;&quot;&gt;2&lt;/b&gt;&lt;/font&gt;" style="text;html=1;strokeColor=none;fillColor=none;align=center;verticalAlign=middle;whiteSpace=wrap;rounded=0;" vertex="1" parent="1">
          <mxGeometry x="-91.17000000000002" y="491.25" width="17" height="14.5" as="geometry" />
        </mxCell>
        <mxCell id="X3p4Lhx2qyk214vXMiK3-112" value="&lt;h1&gt;&lt;font face=&quot;Comic Sans MS&quot;&gt;D&lt;sub style=&quot;&quot;&gt;&lt;font style=&quot;font-size: 16px;&quot;&gt;3&lt;/font&gt;&lt;/sub&gt;&lt;/font&gt;&lt;/h1&gt;&lt;p&gt;&lt;br&gt;&lt;/p&gt;" style="text;html=1;strokeColor=none;fillColor=none;spacing=5;spacingTop=-20;whiteSpace=wrap;overflow=hidden;rounded=0;" vertex="1" parent="1">
          <mxGeometry x="-216.17000000000002" y="755" width="49" height="44" as="geometry" />
        </mxCell>
        <mxCell id="X3p4Lhx2qyk214vXMiK3-113" value="&lt;h1&gt;&lt;font face=&quot;Comic Sans MS&quot;&gt;D&lt;sub style=&quot;&quot;&gt;&lt;font style=&quot;font-size: 16px;&quot;&gt;2&lt;/font&gt;&lt;/sub&gt;&lt;/font&gt;&lt;/h1&gt;&lt;p&gt;&lt;br&gt;&lt;/p&gt;" style="text;html=1;strokeColor=none;fillColor=none;spacing=5;spacingTop=-20;whiteSpace=wrap;overflow=hidden;rounded=0;" vertex="1" parent="1">
          <mxGeometry x="31.829999999999984" y="517" width="49" height="44" as="geometry" />
        </mxCell>
        <mxCell id="X3p4Lhx2qyk214vXMiK3-114" value="&lt;h1&gt;&lt;font face=&quot;Comic Sans MS&quot;&gt;D&lt;sub style=&quot;&quot;&gt;&lt;font style=&quot;font-size: 16px;&quot;&gt;1&lt;/font&gt;&lt;/sub&gt;&lt;/font&gt;&lt;/h1&gt;&lt;p&gt;&lt;br&gt;&lt;/p&gt;" style="text;html=1;strokeColor=none;fillColor=none;spacing=5;spacingTop=-20;whiteSpace=wrap;overflow=hidden;rounded=0;" vertex="1" parent="1">
          <mxGeometry x="-216.17000000000002" y="520" width="49" height="44" as="geometry" />
        </mxCell>
        <mxCell id="X3p4Lhx2qyk214vXMiK3-115" value="&lt;h2 style=&quot;&quot;&gt;&lt;font style=&quot;font-size: 19px;&quot;&gt;v&lt;/font&gt;&lt;font style=&quot;font-size: 13.1944px;&quot;&gt;&lt;sub&gt;1&lt;/sub&gt;&lt;/font&gt;&lt;/h2&gt;" style="text;html=1;strokeColor=none;fillColor=none;align=center;verticalAlign=middle;whiteSpace=wrap;rounded=0;fontFamily=Comic Sans MS;" vertex="1" parent="1">
          <mxGeometry x="-139.17000000000002" y="452.5" width="20" height="17.5" as="geometry" />
        </mxCell>
        <mxCell id="X3p4Lhx2qyk214vXMiK3-120" value="&lt;h2 style=&quot;&quot;&gt;&lt;font style=&quot;font-size: 19px;&quot;&gt;v&lt;/font&gt;&lt;font style=&quot;font-size: 13.1944px;&quot;&gt;&lt;sub&gt;10&lt;/sub&gt;&lt;/font&gt;&lt;/h2&gt;" style="text;html=1;strokeColor=none;fillColor=none;align=center;verticalAlign=middle;whiteSpace=wrap;rounded=0;fontFamily=Comic Sans MS;" vertex="1" parent="1">
          <mxGeometry x="-111.17" y="597.25" width="20" height="17.5" as="geometry" />
        </mxCell>
        <mxCell id="X3p4Lhx2qyk214vXMiK3-121" value="&lt;h2 style=&quot;&quot;&gt;&lt;font style=&quot;font-size: 19px;&quot;&gt;v&lt;/font&gt;&lt;font style=&quot;font-size: 13.1944px;&quot;&gt;&lt;sub&gt;8&lt;/sub&gt;&lt;/font&gt;&lt;/h2&gt;" style="text;html=1;strokeColor=none;fillColor=none;align=center;verticalAlign=middle;whiteSpace=wrap;rounded=0;fontFamily=Comic Sans MS;" vertex="1" parent="1">
          <mxGeometry x="-187.17000000000002" y="690.5" width="20" height="17.5" as="geometry" />
        </mxCell>
        <mxCell id="X3p4Lhx2qyk214vXMiK3-122" value="&lt;h2 style=&quot;&quot;&gt;&lt;font style=&quot;font-size: 19px;&quot;&gt;v&lt;/font&gt;&lt;font style=&quot;font-size: 13.1944px;&quot;&gt;&lt;sub&gt;9&lt;/sub&gt;&lt;/font&gt;&lt;/h2&gt;" style="text;html=1;strokeColor=none;fillColor=none;align=center;verticalAlign=middle;whiteSpace=wrap;rounded=0;fontFamily=Comic Sans MS;" vertex="1" parent="1">
          <mxGeometry x="-109.17000000000002" y="731.5" width="20" height="17.5" as="geometry" />
        </mxCell>
        <mxCell id="X3p4Lhx2qyk214vXMiK3-123" value="&lt;h2 style=&quot;&quot;&gt;&lt;font style=&quot;font-size: 19px;&quot;&gt;v&lt;/font&gt;&lt;font style=&quot;font-size: 13.1944px;&quot;&gt;&lt;sub&gt;11&lt;/sub&gt;&lt;/font&gt;&lt;/h2&gt;" style="text;html=1;strokeColor=none;fillColor=none;align=center;verticalAlign=middle;whiteSpace=wrap;rounded=0;fontFamily=Comic Sans MS;" vertex="1" parent="1">
          <mxGeometry x="-28.669999999999987" y="662.25" width="20" height="17.5" as="geometry" />
        </mxCell>
      </root>
    </mxGraphModel>
  </diagram>
</mxfile>
